<svg xmlns="http://www.w3.org/2000/svg" viewBox="0 0 64 64" role="img" aria-label="CM monogram favicon">
  <rect width="64" height="64" rx="8" fill="#111111"/>
  <path d="M 8.32 25.93 L 7.81 28.33 L 7.76 30.83 L 8.27 33.68 L 9.14 35.98 L 10.36 37.97 L 12.15 39.86 L 13.83 41.03 L 15.77 41.90 L 18.02 42.41 L 20.11 42.51 L 22.86 42.11 L 25.16 41.24 L 26.85 42.67 L 28.12 43.48 L 28.73 43.69 L 28.78 43.48 L 26.95 41.90 L 25.88 40.73 L 26.54 40.27 L 27.71 39.04 L 30.47 34.60 L 31.44 33.63 L 32.31 33.22 L 32.36 37.87 L 32.15 39.15 L 31.54 39.96 L 30.78 40.32 L 29.40 40.52 L 29.09 40.98 L 29.14 41.39 L 29.40 41.65 L 31.44 41.70 L 30.06 43.64 L 29.45 45.12 L 29.55 46.49 L 29.86 47.00 L 30.11 47.06 L 30.47 46.04 L 31.29 44.56 L 33.43 41.59 L 36.54 41.65 L 36.80 41.14 L 36.64 40.68 L 36.34 40.47 L 35.06 40.32 L 34.50 40.06 L 35.78 37.61 L 36.13 36.44 L 36.24 34.86 L 35.98 33.79 L 35.62 33.17 L 34.86 32.51 L 33.84 32.15 L 33.84 23.58 L 33.94 23.53 L 41.44 41.29 L 41.59 41.54 L 41.90 41.59 L 42.16 41.29 L 49.51 22.46 L 49.51 38.99 L 49.20 39.71 L 48.74 40.11 L 46.65 40.57 L 46.39 40.93 L 46.44 41.44 L 46.65 41.65 L 55.94 41.65 L 56.24 41.29 L 56.24 40.73 L 54.61 40.42 L 53.59 39.91 L 53.13 39.20 L 52.98 38.28 L 53.03 21.08 L 53.33 20.11 L 53.89 19.50 L 54.71 19.14 L 55.89 18.99 L 56.19 18.78 L 56.29 18.27 L 56.04 17.86 L 49.51 17.96 L 42.82 35.83 L 36.49 21.03 L 35.47 19.19 L 34.81 18.53 L 33.89 18.12 L 30.16 17.86 L 29.24 18.02 L 29.09 18.68 L 29.30 18.93 L 30.47 19.24 L 31.54 19.80 L 32.00 20.31 L 32.26 20.93 L 32.36 32.26 L 31.39 32.66 L 30.52 33.28 L 29.19 34.86 L 27.20 37.72 L 25.98 38.89 L 25.01 39.55 L 24.29 38.53 L 23.73 37.10 L 23.73 36.08 L 24.14 35.22 L 24.85 34.65 L 25.93 34.50 L 27.00 34.96 L 27.92 35.88 L 28.07 35.83 L 28.07 35.52 L 27.25 34.45 L 26.18 33.89 L 24.91 33.79 L 23.53 34.35 L 23.02 34.86 L 22.66 35.52 L 22.51 37.00 L 22.86 38.23 L 24.04 40.06 L 22.05 40.78 L 19.80 40.83 L 18.48 40.47 L 17.40 39.96 L 16.03 38.99 L 14.65 37.56 L 13.78 36.34 L 12.40 33.43 L 11.84 30.98 L 11.74 28.63 L 12.25 25.72 L 12.91 23.94 L 13.68 22.51 L 15.62 20.21 L 17.05 19.19 L 18.27 18.63 L 20.77 18.17 L 22.20 18.27 L 23.43 18.68 L 24.50 19.60 L 25.01 20.52 L 25.21 22.00 L 24.96 22.92 L 23.32 25.26 L 23.99 25.67 L 24.75 25.88 L 25.47 25.88 L 26.39 25.62 L 27.10 25.16 L 27.81 24.40 L 28.48 22.81 L 28.53 21.74 L 28.38 20.93 L 27.46 19.29 L 26.44 18.37 L 25.26 17.71 L 23.63 17.15 L 22.25 16.89 L 19.04 16.94 L 16.03 17.71 L 13.58 18.93 L 11.33 20.77 L 9.49 23.22 Z M 34.04 33.17 L 34.70 33.84 L 34.91 34.55 L 34.91 35.32 L 34.55 36.64 L 33.89 37.97 L 33.84 33.22 Z" fill="#ffffff" fill-rule="evenodd"/>
</svg>
